<svg version="1.0" xmlns="http://www.w3.org/2000/svg" viewBox="0 0 512 512"><path d="M213.7 71.7c-.3.2-31.9 1.3-54.7 1.8l-13.5.5-14.7.4c-8 .2-15.1.7-15.6 1-.6.3-1.3.2-1.7-.3-.3-.6-1.6-.7-2.8-.3-1.2.4-7 .7-12.9.7-6 0-10.8.4-10.8.9s-.6.3-1.3-.3c-.8-.6-1.7-.8-2-.5-.3.4-7.5.8-15.9 1.1-27.7.7-30.3.8-31.5 1.6-.7.5-1.3.4-1.3-.1s-1.2-.8-2.7-.6l-7.2.3c-7.2.2-3.7 1.5 4.7 1.8l17.7.7 43 2.1 22 1 23.5 1.1 20 .9 23.7 1 44.3 2a3961.1 3961.1 0 0169 3 96.2 96.2 0 0110.5.5c1.1-.3 11.2-.9 21-1.3 3.3-.1 6.5-.6 7.2-1 .6-.4 1.4-.3 1.8.3.4.6 1.1.7 1.7.4 1-.6 13.5-1.5 26.5-1.8 3.5 0 6.3-.3 6.3-.6s3.3-.5 7.3-.6a2505.5 2505.5 0 0084.7-5l9.2-.5c3.6-.1 5.5-.5 5.1-1.2-.4-.6-.1-.7.7-.2.8.5 3.9.7 6.9.5l8.4-.3c1.5 0 2.7-.5 2.7-1s-2.3-.7-5-.5c-2.8.1-5 .1-5-.2 0-.3-1.4-.5-3-.6-1.7-.1-3 .3-3 .8s-.6.6-1.2.1c-.7-.4-4.9-.9-9.3-1l-8-.3-16.5-.6-34-.9c-16.9-.5-18.5-.6-21.2-.4l-16.3-.5-32.2-1c-9.5-.3-17.7-.7-18.2-1-.5-.4-1.2-.2-1.6.4-.4.6-1 .8-1.5.5-.5-.3-9.1-.8-19.2-1.1l-35.3-.9c-23.4-.7-48.6-1.1-48.8-.8zM16 78.4c0 .2.7.6 1.5 1 .8.3 1.5.1 1.5-.4 0-.6-.7-1-1.5-1s-1.5.2-1.5.4zM494 80c0 .5.7.7 1.5.4.8-.4 1.5-.8 1.5-1 0-.2-.7-.4-1.5-.4s-1.5.4-1.5 1zM498.8 79.7c.7.3 1.6.2 1.9-.1.4-.3-.2-.6-1.3-.5-1.1 0-1.4.3-.6.6zM502.6 80.2c.3.5 1 .6 1.5.3 1.3-.9 1.1-1.2-.6-1.2-.8 0-1.2.4-.9.9zM206 118c0 .3-3.7.6-8.3.6l-20.7.8-23.5 1-21 1-23.5 1.1-20.8 1-20 1-20.7 1a6954.8 6954.8 0 00-37.4 2.1c-1.1 1 1.1 1.4 9.1 1.8 4.8.2 9.1.7 9.7 1 .6.4 1.1.2 1.1-.4 0-.6.5-.8 1.1-.5 1 .7 5.6 1.1 23.4 2l8 .5a1085.8 1085.8 0 0137.5 2.5l16.5 1 16 1 14.5 1a787.8 787.8 0 0129.5 2l16 1a1419.1 1419.1 0 0032 2.1l16.5 1 13.5.8c28.2 2 44.8 2.4 57 1.3l6-.7 7.5-.6 12-.8 11.5-1 11.5-1 12.5-1.1 11.5-1 11.5-1c4.4-.3 9.4-.8 11-1.1a2396.1 2396.1 0 0022.5-1.8l11-1 13.5-1.2 12.5-1 11-.9 12.3-.9c3.8-.3 7.2-.7 7.5-1 .5-.6-1.6-.7-12.5-1-2.9 0-5.3-.4-5.3-.8 0-.3-1.3-.3-2.9.2-1.6.4-3.2.6-3.5.2-.3-.3-4.5-.6-9.3-.8-9.4-.2-34.1-1.2-48.8-1.9l-48-2-23.5-1-75.5-3a407 407 0 01-38.5-2c-.5-.3-1.1-.1-1.5.5-.4.6-1.1.7-1.8.3a82 82 0 00-19.7-.3zM3.6 127.8c-.3.5.1.9.9.9s1.2-.4.9-.9c-.3-.4-.7-.8-.9-.8-.2 0-.6.4-.9.8zM7 128c0 .5.5 1 1 1 .6 0 1-.5 1-1 0-.6-.4-1-1-1a1 1 0 00-1 1zM215.8 168.5c-.2.2-4.8.6-10.3.9l-16.5 1.1-13.7.9c-4 .3-7.7.7-8.2 1.1-.5.3-1.2.1-1.6-.5-.4-.6-1.2-.7-1.8-.3-.6.4-2.7.8-4.7.8l-14.5 1a938.6 938.6 0 01-30.5 1.9l-8.5.6-6.5.5-43.5 3-13.5 1-14.5 1c-19.6 1.5-23.1 1.8-24.9 1.7-1-.1-1.6.2-1.3.5.4.3 3.4.7 6.9.9 7.3.5 15.6 1.2 21.3 1.9 2.2.3 5.8.5 8 .6 2.2.1 5 .5 6.2 1 1.5.5 2.3.5 2.3-.2 0-.6.4-.7 1-.4 1.1.7 4.7 1.1 27.3 3a615.7 615.7 0 0120.9 2 406 406 0 0120.8 2.1l10.5.9c3.9.2 8.1.7 9.5.9l11 1.1 13 1.1 10 .9c6.5.5 16.1 1.4 21 2a580.3 580.3 0 0022 1.9 510 510 0 0023.5 2.2c3.3.2 7.1.6 8.5.8 1.4.3 6.3.8 11 1.2 9.6.8 11.4.9 22 2 9.8 1 22 1 29.5.1l10.5-1.3c2.5-.2 5.6-.6 7-.9 1.4-.2 4.3-.7 6.5-.9l12-1.6 13-1.5 8-1c1.7-.3 5.7-.7 9-1 3.3-.3 7.1-.8 8.5-1.1l8-1c3-.2 6.9-.7 8.5-1 1.7-.4 4.6-.7 6.5-.9 3.5-.2 12.3-1.3 17-2a989 989 0 0120-2.5l21-2.6a113 113 0 0114.8-1.6c1.7-.1 3.2-.4 3.2-.7 0-.3 1.5-.7 3.3-.7 7.8-.3 12.7-1 12.7-1.7 0-.4-.8-.7-1.7-.8a236 236 0 01-13.8-.9l-8.5-.5c-8.5-.3-23.2-1.2-34.5-2l-17-1-17-1-15.5-1-17.5-1.1-17-.9-16.5-1-17.5-1-18.5-1-34-2-17-.9-19.5-1.1c-6-.4-12-.8-13.2-1-1.2-.2-2.3-.2-2.5 0zM498.8 185.7c.7.3 1.6.2 1.9-.1.4-.3-.2-.6-1.3-.5-1.1 0-1.4.3-.6.6zM215.8 221.5c-.1.2-3.9.6-8.3 1l-11 1.1c-6.9.8-19.2 1.8-21.7 1.9-1.6 0-2.8.2-2.8.5s-2.4.6-5.3.7c-2.8.1-7.2.4-9.7.7l-21 2.1c-1.9.1-3.5.3-3.5.4a1839.3 1839.3 0 00-27.5 2.6l-10 1-9.5 1-19.5 2-10.5 1c-12.9 1.2-15 1.4-19.5 2-4.2.6-8.3 1-20.5 1.9-8.2.7-13.8 1.5-14.4 2.2-.3.4.6.4 2.2.2 1.5-.3 2.9-.2 3.2.2.2.4 2.1.7 4.2.8 2.1.1 4.8.4 6.1.6 2.2.5 20.8 3.1 28.7 4.1l15.5 2.1 7.8 1a151.8 151.8 0 0114.1 1.9c6.6.8 7.5 1 8.9 1.8.7.5 1.2.3 1.2-.3s.4-.9.8-.6c1 .6 4.4 1.2 11.7 2l7.5 1.1 6 .9 31.5 4.2 6 .9 7 1 8 1 8 1.1 7.5 1c1.9.3 5.4.6 7.7.7 2.4.1 4.3.6 4.3 1 0 .5.8.6 1.9.2 1-.3 2.4.1 3.1 1 1 1.2 1.6 1.3 2.7.3 1.1-.9 1.6-.9 2.4.3.5.8.9.9.9.3 0-.7 1.1-.9 2.8-.6 2.7.6 2.7.6-.8 1.3a97 97 0 01-8.5 1.5c-5.8.7-7.9 1-12 1.7l-8 1.2a158.2 158.2 0 00-13.5 2 494.3 494.3 0 00-14 2c-2.5.2-5.6.7-7 .9-2.9.6-9.6 1.5-15 2a16 16 0 00-3.5.6l-2.5.5-15 2-14 2a1239.7 1239.7 0 01-38.5 5.5c0 .4-4.4 1.1-8.5 1.4-2.5.3-6.3.7-8.5 1.1a130.6 130.6 0 01-10 1.5c0 .1-1.6.4-3.5.6-5.3.5-11 1.2-15.5 2l-5 .9c-.5.1-2.7.3-4.7.3-2.2.1-3.8.7-3.8 1.4 0 .6.3.9.6.6.3-.4 2-.2 3.7.3a64 64 0 007.6 1.5c2.5.3 4.8.7 5.3 1 .9.6 7.2 1.6 10.6 1.8 1.2 0 2.2.4 2.2.7 0 .3.6.6 1.3.6 2.2.2 8.9 1.2 10.6 1.7 1.8.6 5.1 1.2 11.8 2.2 2.3.3 4.3 1.1 4.3 1.6s.5.6 1 .3c.6-.4 4.3 0 8.3.9l10.2 2.1c3.9.6 6.7 1.2 13.5 2.7 3 .6 6.6 1.2 8 1.3l2.5.4c0 .3 1.6.6 6.5 1.5 1.9.3 4.6.8 6 1.2a87.4 87.4 0 007.5 1.4l2.8.5c1.5.2 5.3.9 8.4 1.6l5.6 1.3-8.4 1.8a497.7 497.7 0 01-23.4 4.8c0 .2-1.3.5-6 1.3L91 341.5l-4.5 1-5 .9a518 518 0 01-18.5 3.9l-5 1.1c-1.4.4-3.8.9-5.5 1.1l-3 .5c0 .2-2.9.8-7 1.5-1.6.2-6.1 1.2-10 2a143 143 0 01-14.2 2.9l-4.8 1.1-8.5 1.8-5.5 1.3 12 3.3a356.4 356.4 0 0119 5.4l3.5.9 14.5 4.2 18 5.2 7 1.9 14.5 4 14 4 21 6 7.5 2 14.4 4.1 13.5 3.8 11.1 3.2 6.5 1.8 37 10.5 29 8.1a1004.4 1004.4 0 0126.5 7.6l1.8.4 1.7.5c.6.1 1.1.3 1.3.5l1.8.5c.9.1 5.8 1.5 10.8 2.9l9.2 2.7 6.2-2.3c3.4-1.3 6.5-2.2 7-2 .4.1.7-.2.7-.8 0-.5.8-1 1.8-1s2.2-.3 2.6-.7c.4-.5 1.2-.9 1.7-.9l1.4-.4 1.3-.5a41 41 0 002.7-.9l10-3.8c4.4-1.6 8.8-3.4 9.8-3.9s2.2-.7 2.7-.4c.4.3 1 .2 1.2-.2.1-.5 9.8-4.3 21.3-8.6l22.5-8.4c.8-.4 1.8-.5 2.3-.5.4.1.7-.3.7-1 0-.6.2-.9.5-.6.3.3 7-1.9 14.8-4.9a501.4 501.4 0 0119.2-7.3l3.5-1.5a74 74 0 0012.4-4.6c.6-.5 1.7-.9 2.5-.9.9 0 2.7-.6 4.2-1.3 1.4-.8 6.1-2.6 10.4-4.1a89 89 0 0010.5-4.1c2.5-.1 31.7-12.1 30.7-12.6-.6-.4-3-.9-5.2-1.2l-6.5-1.1-6-1-12-2.2-8-1.4-8-1.5-11.5-2.1a1334.1 1334.1 0 01-9-1.4l-2.5-.6-5.5-1-6-.9a79 79 0 01-5.5-.9c-1.4-.4-5-1-8-1.6a921.9 921.9 0 01-32.9-5.9c-2.2-.1 0-2 2.9-2.5a8 8 0 002.5-.6 8 8 0 012.4-.6c1.4-.2 8.1-2 15-3.8 12.5-3.3 18.4-4.8 18.8-4.7l4.3-1.4c2.2-.8 4-1.2 4-1 0 .2 1.8-.2 4-1a34 34 0 014.8-1.5l4.7-1.1a134.4 134.4 0 019.5-2.4c1.8-.6 3.9-1.1 8.9-2.1 1.4-.3 2.8-.7 3.3-1 .4-.3 1.6-.7 2.5-.9 1-.1 4.5-1 7.7-1.8 3.3-.9 6.3-1.4 6.8-1.1.4.3.8.1.8-.3 0-.7 4.6-2.1 13.3-3.9.4-.1.8-.2 1-.4.4-.3 3.1-1 6.5-1.6 3.5-.7 5.4-2.3 2.5-2.2-1.6.1-9.1-.8-15.3-1.7l-7.5-1c-11.5-1.3-18-2.1-23.5-3l-9-1.1-9.5-1-7-.9-8.2-1-8-.9-8.8-1.1-8.5-1-16-2-8.3-1-7.5-1-7.7-1-8.5-1-7.5-1-8-1a3478.3 3478.3 0 00-24.2-2.8c-3.2-.2-4.1-1.8-1.2-2.2 5.8-1 9.4-1.6 13.1-2.4a205.7 205.7 0 0113.3-2.5l21-3.9c1.1-.1 2.5-.5 3-.8.6-.2 2.5-.4 4.3-.4 1.7 0 3.2-.3 3.2-.7 0-.4.8-.6 1.8-.6a78 78 0 0012.2-1.7c3.1-.7 9-1.7 11-2l4-.8c2.1-.5 18.6-3.5 28.5-5.2l5.5-1a44 44 0 016-1l3.5-.5c0-.2 2.1-.6 6.8-1.4l7.5-1.2a33 33 0 006.7-1.4l3.5-.5a44 44 0 006-1l5.5-1 5.5-1c6-1.2 7.8-1.6 13.7-2.5 3.4-.6 7.2-1.4 8.5-2 1.9-.7 1.2-.9-3.2-.9-3 0-7.1-.3-9-.6-4.5-.6-13.9-1.4-34.5-2.9-12.6-1-15.2-1.3-16.5-2.1-.5-.3-1-.1-1 .5s-.4.9-1 .5c-.5-.3-3.1-.8-5.7-1l-23.8-2-23.2-2-11-1-10.3-1-12-1-11-.9a558 558 0 00-26.7-2c-2.4-.1-4.3-.3-4.3-.6s-2.6-.6-5.8-.7c-7.4-.3-18.7-1.1-18.7-1.3 0-.1-3.2-.4-17-1.4l-13.5-1.2-23.5-1.9a177.2 177.2 0 01-11.7-1z"/></svg>